<?xml version="1.0" encoding="UTF-8"?>
<svg version="1.1" xmlns="http://www.w3.org/2000/svg" width="98" height="96">
<path d="M0 0 C10.84558675 9.04437623 17.21953594 19.78166005 19.2109375 33.84375 C20.24340746 47.67207718 17.36560388 59.53793316 9.2109375 70.84375 C6.8359375 73.53125 6.8359375 73.53125 4.2109375 75.84375 C3.61410156 76.40835938 3.01726562 76.97296875 2.40234375 77.5546875 C-2.85134057 82.40896892 -7.96200811 86.57038897 -15.2890625 87.09375 C-16.1140625 87.01125 -16.9390625 86.92875 -17.7890625 86.84375 C-19.24381384 83.93424732 -18.80569779 81.39391565 -18.7265625 78.15625 C-18.67785235 72.87390446 -19.03153347 68.78680039 -20.7890625 63.84375 C-20.7890625 62.85375 -20.7890625 61.86375 -20.7890625 60.84375 C-20.13679688 60.67359375 -19.48453125 60.5034375 -18.8125 60.328125 C-10.11280672 58.02238779 -10.11280672 58.02238779 -3.57421875 52.125 C-0.37416535 46.38540245 0.99737089 40.57007196 -0.37109375 34.0859375 C-1.43109382 29.62230503 -1.43109382 29.62230503 -3.7890625 25.84375 C-4.02387943 23.66082226 -4.20269573 21.47171826 -4.3515625 19.28125 C-4.43535156 18.08371094 -4.51914063 16.88617187 -4.60546875 15.65234375 C-4.66605469 14.72550781 -4.72664063 13.79867188 -4.7890625 12.84375 C-9.78948043 13.30370988 -9.78948043 13.30370988 -14.2265625 15.46875 C-17.32317389 17.13034636 -19.22802438 16.75508578 -22.62109375 16.17578125 C-27.91772932 15.36458481 -33.09462117 15.70856057 -38.3515625 16.59375 C-42.66662752 17.15101843 -45.20420458 16.09005206 -48.8671875 13.8515625 C-51.14062816 12.6593924 -53.2666503 12.25255474 -55.7890625 11.84375 C-55.73685547 13.29007813 -55.73685547 13.29007813 -55.68359375 14.765625 C-55.65652344 16.02890625 -55.62945312 17.2921875 -55.6015625 18.59375 C-55.54935547 20.47320313 -55.54935547 20.47320313 -55.49609375 22.390625 C-55.80542663 26.03662854 -56.36480731 27.22159642 -58.7890625 29.84375 C-61.24383331 36.09225751 -59.93417532 43.34591153 -57.87890625 49.51171875 C-56.02740241 53.47353879 -53.61582476 55.76949425 -49.7890625 57.84375 C-46.17031115 59.12468083 -42.54677567 60.06910388 -38.7890625 60.84375 C-40.5390625 67.59375 -40.5390625 67.59375 -42.7890625 69.84375 C-45.84507388 70.4141254 -48.72837755 70.36980523 -51.7890625 69.84375 C-54.6015625 67.59375 -54.6015625 67.59375 -56.7890625 64.84375 C-59.37706397 62.02047567 -60.93420665 60.39444369 -64.7890625 59.84375 C-64.7890625 60.50375 -64.7890625 61.16375 -64.7890625 61.84375 C-64.18320313 62.0809375 -63.57734375 62.318125 -62.953125 62.5625 C-60.28777637 64.14054034 -59.6009939 65.62856674 -58.1640625 68.34375 C-56.37848567 71.18879952 -55.41595751 72.58458124 -52.28515625 73.87890625 C-48.73682002 74.57617756 -45.40225556 74.84375 -41.7890625 74.84375 C-41.7890625 78.80375 -41.7890625 82.76375 -41.7890625 86.84375 C-51.55287259 86.68368754 -58.43321578 82.14073344 -65.5390625 75.65625 C-76.67108374 63.72143877 -79.59203727 50.43746097 -79.1328125 34.703125 C-78.55379211 23.9747043 -74.3546315 16.15149849 -67.7890625 7.84375 C-66.89574219 6.60818359 -66.89574219 6.60818359 -65.984375 5.34765625 C-49.71767229 -13.20564702 -19.10374894 -14.59056553 0 0 Z " fill="#FFFFFF" transform="translate(78.7890625,9.15625)"/>
</svg>
